<?xml version="1.0" encoding="UTF-8" standalone="yes"?>
<svg version="1.1" id="Layer_1" xmlns="http://www.w3.org/2000/svg" xmlns:xlink="http://www.w3.org/1999/xlink" x="0px" y="0px" viewBox="0 0 315 315" style="enable-background:new 0 0 315 315;" xml:space="preserve">
      <title>camera lens</title>
    <g id="color_index_0" fill="#1129FF">
              <path d="M157.5,0C70.5,0,0,70.5,0,157.5S70.5,315,157.5,315S315,244.5,315,157.5S244.5,0,157.5,0z M272.4,84H138.8l35.7-61.8&#xD;&#xA;&#x9;&#x9;C214.7,27.2,250.5,49.9,272.4,84z M188.4,211.7h-61.6L96,158.3l30.8-53.3h61.5l30.8,53.3L188.4,211.7z M150.9,21L84,137.3&#xD;&#xA;&#x9;&#x9;L48.2,75.7C72.6,43.1,110.2,23,150.9,21z M35.4,95.7c32.1,55.8,35.2,61.1,66.8,115.5H32.3c-16.1-37.1-14.9-79.4,3.4-115.5H35.4z&#xD;&#xA;&#x9;&#x9; M43.4,232.2h132.8l-34.9,60.2c-39.7-4.7-75.4-26.5-97.7-59.6L43.4,232.2z M165.1,294L231,179.3l35,60.7&#xD;&#xA;&#x9;&#x9;C241.9,271.9,205,291.7,165.1,294z M278.9,220.5L212.5,105h71c15.6,37.1,13.9,79.1-4.5,114.9L278.9,220.5z"/>
          </g>
</svg>